<?xml version="1.0" encoding="UTF-8" standalone="no"?>
<!DOCTYPE svg PUBLIC "-//W3C//DTD SVG 1.1//EN"
 "http://www.w3.org/Graphics/SVG/1.1/DTD/svg11.dtd">
<!-- Generated by graphviz version 2.43.0 (0)
 -->
<!-- Title: sourcetree Pages: 1 -->
<svg width="604pt" height="260pt"
 viewBox="0.00 0.00 603.50 260.00" xmlns="http://www.w3.org/2000/svg" xmlns:xlink="http://www.w3.org/1999/xlink">
<g id="graph0" class="graph" transform="scale(1 1) rotate(0) translate(4 256)">
<title>sourcetree</title>
<polygon fill="white" stroke="transparent" points="-4,4 -4,-256 599.5,-256 599.5,4 -4,4"/>
<!-- mulle&#45;objc&#45;compat -->
<g id="node1" class="node">
<title>mulle&#45;objc&#45;compat</title>
<polygon fill="yellow" stroke="black" points="366,-252 219,-252 219,-216 366,-216 366,-252"/>
<text text-anchor="middle" x="292.5" y="-230.3" font-family="Times,serif" font-size="14.00">mulle&#45;objc&#45;compat</text>
</g>
<!-- MulleObjC -->
<g id="node2" class="node">
<title>MulleObjC</title>
<polygon fill="lightgrey" stroke="black" points="338.5,-180 246.5,-180 246.5,-144 338.5,-144 338.5,-180"/>
<text text-anchor="middle" x="292.5" y="-158.3" font-family="Times,serif" font-size="14.00">MulleObjC</text>
</g>
<!-- mulle&#45;objc&#45;compat&#45;&gt;MulleObjC -->
<g id="edge1" class="edge">
<title>mulle&#45;objc&#45;compat&#45;&gt;MulleObjC</title>
<path fill="none" stroke="black" d="M292.5,-215.7C292.5,-207.98 292.5,-198.71 292.5,-190.11"/>
<polygon fill="black" stroke="black" points="296,-190.1 292.5,-180.1 289,-190.1 296,-190.1"/>
</g>
<!-- mulle&#45;objc&#45;debug -->
<g id="node3" class="node">
<title>mulle&#45;objc&#45;debug</title>
<polygon fill="lightgrey" stroke="black" points="139,-108 0,-108 0,-72 139,-72 139,-108"/>
<text text-anchor="middle" x="69.5" y="-86.3" font-family="Times,serif" font-size="14.00">mulle&#45;objc&#45;debug</text>
</g>
<!-- MulleObjC&#45;&gt;mulle&#45;objc&#45;debug -->
<g id="edge5" class="edge">
<title>MulleObjC&#45;&gt;mulle&#45;objc&#45;debug</title>
<path fill="none" stroke="black" d="M246.29,-146.5C213.76,-136.28 169.77,-122.48 133.82,-111.19"/>
<polygon fill="black" stroke="black" points="134.49,-107.73 123.9,-108.08 132.4,-114.41 134.49,-107.73"/>
</g>
<!-- mulle&#45;container -->
<g id="node5" class="node">
<title>mulle&#45;container</title>
<polygon fill="lightgrey" stroke="black" points="285.5,-108 157.5,-108 157.5,-72 285.5,-72 285.5,-108"/>
<text text-anchor="middle" x="221.5" y="-86.3" font-family="Times,serif" font-size="14.00">mulle&#45;container</text>
</g>
<!-- MulleObjC&#45;&gt;mulle&#45;container -->
<g id="edge3" class="edge">
<title>MulleObjC&#45;&gt;mulle&#45;container</title>
<path fill="none" stroke="black" d="M274.95,-143.7C266.27,-135.14 255.64,-124.66 246.15,-115.3"/>
<polygon fill="black" stroke="black" points="248.43,-112.63 238.85,-108.1 243.51,-117.62 248.43,-112.63"/>
</g>
<!-- mulle&#45;multififo -->
<g id="node6" class="node">
<title>mulle&#45;multififo</title>
<polygon fill="lightgrey" stroke="black" points="425,-108 304,-108 304,-72 425,-72 425,-108"/>
<text text-anchor="middle" x="364.5" y="-86.3" font-family="Times,serif" font-size="14.00">mulle&#45;multififo</text>
</g>
<!-- MulleObjC&#45;&gt;mulle&#45;multififo -->
<g id="edge4" class="edge">
<title>MulleObjC&#45;&gt;mulle&#45;multififo</title>
<path fill="none" stroke="black" d="M310.3,-143.7C319.1,-135.14 329.88,-124.66 339.5,-115.3"/>
<polygon fill="black" stroke="black" points="342.18,-117.58 346.91,-108.1 337.3,-112.57 342.18,-117.58"/>
</g>
<!-- mulle&#45;objc&#45;runtime -->
<g id="node7" class="node">
<title>mulle&#45;objc&#45;runtime</title>
<polygon fill="lightgrey" stroke="black" points="595.5,-108 443.5,-108 443.5,-72 595.5,-72 595.5,-108"/>
<text text-anchor="middle" x="519.5" y="-86.3" font-family="Times,serif" font-size="14.00">mulle&#45;objc&#45;runtime</text>
</g>
<!-- MulleObjC&#45;&gt;mulle&#45;objc&#45;runtime -->
<g id="edge6" class="edge">
<title>MulleObjC&#45;&gt;mulle&#45;objc&#45;runtime</title>
<path fill="none" stroke="black" d="M338.71,-146.75C372.03,-136.48 417.46,-122.47 454.44,-111.06"/>
<polygon fill="black" stroke="black" points="455.61,-114.36 464.14,-108.07 453.55,-107.67 455.61,-114.36"/>
</g>
<!-- mulle&#45;fprintf -->
<g id="node4" class="node">
<title>mulle&#45;fprintf</title>
<polygon fill="lightgrey" stroke="black" points="123,-36 16,-36 16,0 123,0 123,-36"/>
<text text-anchor="middle" x="69.5" y="-14.3" font-family="Times,serif" font-size="14.00">mulle&#45;fprintf</text>
</g>
<!-- mulle&#45;objc&#45;debug&#45;&gt;mulle&#45;fprintf -->
<g id="edge2" class="edge">
<title>mulle&#45;objc&#45;debug&#45;&gt;mulle&#45;fprintf</title>
<path fill="none" stroke="black" d="M69.5,-71.7C69.5,-63.98 69.5,-54.71 69.5,-46.11"/>
<polygon fill="black" stroke="black" points="73,-46.1 69.5,-36.1 66,-46.1 73,-46.1"/>
</g>
<!-- mulle&#45;concurrent -->
<g id="node8" class="node">
<title>mulle&#45;concurrent</title>
<polygon fill="lightgrey" stroke="black" points="589,-36 450,-36 450,0 589,0 589,-36"/>
<text text-anchor="middle" x="519.5" y="-14.3" font-family="Times,serif" font-size="14.00">mulle&#45;concurrent</text>
</g>
<!-- mulle&#45;objc&#45;runtime&#45;&gt;mulle&#45;concurrent -->
<g id="edge7" class="edge">
<title>mulle&#45;objc&#45;runtime&#45;&gt;mulle&#45;concurrent</title>
<path fill="none" stroke="black" d="M519.5,-71.7C519.5,-63.98 519.5,-54.71 519.5,-46.11"/>
<polygon fill="black" stroke="black" points="523,-46.1 519.5,-36.1 516,-46.1 523,-46.1"/>
</g>
</g>
</svg>
